<svg width="8.4666665" height="8.4666669" xmlns="http://www.w3.org/2000/svg">

    <g>
        <title>background</title>
        <rect fill="none" id="canvas_background" height="402" width="582" y="-1" x="-1" />
    </g>
    <g>
        <title>Layer 1</title>
        <path clip-rule="nonzero" fill="#ffffff" fill-rule="nonzero" stroke-width="0.529167" stroke-linecap="round"
            stroke-linejoin="round" stroke-miterlimit="4" stroke-dashoffset="0" id="path929"
            d="m4.23242,0.263555c-1.60424,0 -2.91015,1.30591 -2.91015,2.91015c-0.00001,2.82277 2.74609,4.96875 2.74609,4.96875a0.26461,0.26461 0 0 0 0.33008,0c0,0 2.7461,-2.14598 2.74609,-4.96875c0,-1.60424 -1.30786,-2.91015 -2.91211,-2.91015zm0,0.52929c1.31826,0 2.38281,1.0626 2.38281,2.38086c0.00001,2.30926 -2.09106,4.13374 -2.38085,4.38086c-0.28842,-0.24588 -2.38282,-2.0707 -2.38282,-4.38086c0,-1.31826 1.0626,-2.38086 2.38086,-2.38086z" />
        <path clip-rule="nonzero" fill="#ffffff" fill-rule="nonzero" stroke-width="0.529167" stroke-linecap="round"
            stroke-linejoin="round" stroke-miterlimit="4" stroke-dashoffset="0" id="circle931"
            d="m4.23242,1.85144c-0.72749,0 -1.32226,0.59477 -1.32226,1.32226c-0.00001,0.7275 0.59477,1.32422 1.32226,1.32422c0.7275,0 1.32423,-0.59672 1.32422,-1.32422c0,-0.72749 -0.59673,-1.32226 -1.32422,-1.32226zm0,0.52929c0.44151,0 0.79492,0.35146 0.79492,0.79297c0.00001,0.44151 -0.35341,0.79492 -0.79492,0.79492c-0.44151,0 -0.79297,-0.35341 -0.79297,-0.79492c0,-0.44151 0.35146,-0.79297 0.79297,-0.79297z" />
    </g>
</svg>