<svg width="30" height="24" xmlns="http://www.w3.org/2000/svg">
    <title />

    <g>
        <title>background</title>
        <rect fill="none" id="canvas_background" height="26" width="32" y="-1" x="-1" />
    </g>
    <g>
        <title>Layer 1</title>
        <path fill="#176083" id="svg_1"
            d="m26.892326,9.307753a1,1 0 0 0 -1,1l0,8a1,1 0 0 1 -1,1l-20,0a1,1 0 0 1 -1,-1l0,-8a1,1 0 0 0 -2,0l0,8a3,3 0 0 0 0.88,2.12a3,3 0 0 0 2.12,0.88l20,0a3,3 0 0 0 2.12,-0.88a3,3 0 0 0 0.88,-2.12l0,-8a1,1 0 0 0 -1,-1z" />
        <path fill="#176083" stroke="null" id="svg_2"
            d="m14.292326,15.531336a1,1.035897 0 0 0 1.2,0l11.81,-9.178047a1,1.035897 0 0 0 0.3,-1.274153a3.06,3.169845 0 0 0 -0.59,-0.859794a3,3.107691 0 0 0 -2.12,-0.911589l-20,0a3,3.107691 0 0 0 -2.12,0.911589a3.06,3.169845 0 0 0 -0.59,0.859794a1,1.035897 0 0 0 0.3,1.274153l11.81,9.178047zm-9.4,-10.15179l20,0a0.9,0.932307 0 0 1 0.28,0l-10.28,8.028201l-10.28,-8.028201a0.9,0.932307 0 0 1 0.28,0z" />
    </g>
</svg>