<svg width="32" height="32" xmlns="http://www.w3.org/2000/svg">

 <title/>
 <g>
  <title>background</title>
  <rect fill="none" id="canvas_background" height="402" width="582" y="-1" x="-1"/>
 </g>
 <g>
  <title>Layer 1</title>
  <path fill="#176083" id="svg_1" d="m16,31a3,3 0 0 1 -2.21,-1c-3.65,-4 -9.79,-11.61 -9.79,-16.64a12.19,12.19 0 0 1 12,-12.36a12.19,12.19 0 0 1 12,12.36c0,5 -6.14,12.59 -9.79,16.65a3,3 0 0 1 -2.21,0.99zm0,-28a10.2,10.2 0 0 0 -10,10.36c0,3.14 3.47,8.86 9.28,15.31a1,1 0 0 0 1.44,0c5.81,-6.45 9.28,-12.17 9.28,-15.31a10.2,10.2 0 0 0 -10,-10.36z" class="cls-1"/>
  <path fill="#176083" id="svg_2" d="m16,19a6,6 0 1 1 6,-6a6,6 0 0 1 -6,6zm0,-10a4,4 0 1 0 4,4a4,4 0 0 0 -4,-4z" class="cls-1"/>
 </g>
</svg>